<svg width="18" height="18" viewBox="0 0 18 18" fill="none" xmlns="http://www.w3.org/2000/svg">
<path d="M9 0.679688C4.39062 0.679688 0.679688 4.39062 0.679688 9C0.679688 13.6094 4.39062 17.3203 9 17.3203C13.6094 17.3203 17.3203 13.6094 17.3203 9C17.3203 4.39062 13.6094 0.679688 9 0.679688ZM7.32031 12.3203C6.89062 12.3203 6.5 11.9688 6.5 11.5V6.5C6.5 6.03125 6.89062 5.67969 7.32031 5.67969C7.78906 5.67969 8.17969 6.03125 8.17969 6.5V11.5C8.17969 11.9688 7.78906 12.3203 7.32031 12.3203ZM10.6797 12.3203C10.2109 12.3203 9.82031 11.9688 9.82031 11.5V6.5C9.82031 6.03125 10.2109 5.67969 10.6797 5.67969C11.1094 5.67969 11.5 6.03125 11.5 6.5V11.5C11.5 11.9688 11.1094 12.3203 10.6797 12.3203Z" fill="black"/>
</svg>
